<?xml version="1.0" encoding="UTF-8" standalone="no"?>
<!-- Created with Inkscape (http://www.inkscape.org/) -->

<svg
   xmlns:dc="http://purl.org/dc/elements/1.1/"
   xmlns:cc="http://creativecommons.org/ns#"
   xmlns:rdf="http://www.w3.org/1999/02/22-rdf-syntax-ns#"
   xmlns:svg="http://www.w3.org/2000/svg"
   xmlns="http://www.w3.org/2000/svg"
   xmlns:sodipodi="http://sodipodi.sourceforge.net/DTD/sodipodi-0.dtd"
   xmlns:inkscape="http://www.inkscape.org/namespaces/inkscape"
   width="403.63892"
   height="128.17288"
   id="svg2"
   version="1.1"
   inkscape:version="0.48.5 r10040"
   sodipodi:docname="branching-concept.svg">
  <sodipodi:namedview
     id="base"
     pagecolor="#ffffff"
     bordercolor="#666666"
     borderopacity="1.0"
     inkscape:pageopacity="0.0"
     inkscape:pageshadow="2"
     inkscape:zoom="1.979899"
     inkscape:cx="160.92886"
     inkscape:cy="90.918971"
     inkscape:document-units="px"
     inkscape:current-layer="layer4"
     showgrid="false"
     units="in"
     inkscape:window-width="1600"
     inkscape:window-height="834"
     inkscape:window-x="0"
     inkscape:window-y="27"
     inkscape:window-maximized="1"
     fit-margin-top="0"
     fit-margin-left="0"
     fit-margin-right="0"
     fit-margin-bottom="0">
    <inkscape:grid
       snapvisiblegridlinesonly="true"
       enabled="true"
       visible="true"
       empspacing="5"
       units="pt"
       id="grid2987"
       type="xygrid"
       originx="34.495911pt"
       originy="-21.03042pt" />
  </sodipodi:namedview>
  <defs
     id="defs4">
    <marker
       inkscape:stockid="Arrow1Mend"
       orient="auto"
       refY="0"
       refX="0"
       id="Arrow1Mend"
       style="overflow:visible">
      <path
         id="path4239"
         d="M 0,0 5,-5 -12.5,0 5,5 0,0 z"
         style="fill-rule:evenodd;stroke:#000000;stroke-width:1pt"
         transform="matrix(-0.4,0,0,-0.4,-4,0)"
         inkscape:connector-curvature="0" />
    </marker>
    <marker
       inkscape:stockid="Arrow1Lend"
       orient="auto"
       refY="0"
       refX="0"
       id="Arrow1Lend"
       style="overflow:visible">
      <path
         id="path5152"
         d="M 0,0 5,-5 -12.5,0 5,5 0,0 z"
         style="fill-rule:evenodd;stroke:#000000;stroke-width:1pt"
         transform="matrix(-0.8,0,0,-0.8,-10,0)"
         inkscape:connector-curvature="0" />
    </marker>
  </defs>
  <metadata
     id="metadata7">
    <rdf:RDF>
      <cc:Work
         rdf:about="">
        <dc:format>image/svg+xml</dc:format>
        <dc:type
           rdf:resource="http://purl.org/dc/dcmitype/StillImage" />
        <dc:title />
      </cc:Work>
    </rdf:RDF>
  </metadata>
  <g
     style="display:inline"
     transform="translate(43.119889,-897.89883)"
     id="layer1"
     inkscape:groupmode="layer"
     inkscape:label="Layer 1">
    <path
       inkscape:connector-curvature="0"
       id="path2989"
       d="m 34.776243,971.10975 183.398837,0"
       style="fill:none;stroke:#ff0000;stroke-width:1.99999988;stroke-linecap:butt;stroke-linejoin:miter;stroke-miterlimit:4;stroke-opacity:1;stroke-dasharray:none" />
    <path
       sodipodi:nodetypes="cc"
       inkscape:connector-curvature="0"
       id="path2993"
       d="m 181.67871,971.10975 36.49637,-25"
       style="fill:none;stroke:#000000;stroke-width:0.99999994px;stroke-linecap:butt;stroke-linejoin:miter;stroke-opacity:1" />
    <path
       inkscape:connector-curvature="0"
       id="path2995"
       d="m 218.17508,983.60975 -9.16994,-12.5 9.16994,6.25"
       style="fill:none;stroke:#000000;stroke-width:0.99999994px;stroke-linecap:butt;stroke-linejoin:miter;stroke-opacity:1" />
    <path
       inkscape:connector-curvature="0"
       id="path2997"
       d="m 218.17508,958.60975 -18.33988,0 18.33988,-6.25"
       style="fill:none;stroke:#000000;stroke-width:0.99999994px;stroke-linecap:butt;stroke-linejoin:miter;stroke-opacity:1" />
    <path
       inkscape:connector-curvature="0"
       id="path3816"
       d="m 195.25022,971.10975 22.92486,25"
       style="fill:none;stroke:#000000;stroke-width:0.99999994px;stroke-linecap:butt;stroke-linejoin:miter;stroke-opacity:1" />
    <path
       style="fill:none;stroke:#ff0000;stroke-width:1.99999988;stroke-linecap:butt;stroke-linejoin:miter;stroke-miterlimit:4;stroke-opacity:1;stroke-dasharray:none"
       d="M 29.536276,952.53832 65.954045,916.10975"
       id="path4672"
       inkscape:connector-curvature="0"
       sodipodi:nodetypes="cc" />
    <path
       sodipodi:type="arc"
       style="fill:#a3a3a3;fill-opacity:1;stroke:#000000;stroke-width:0.93838865;stroke-miterlimit:4;stroke-opacity:1;stroke-dasharray:2.81516587, 0.93838863;stroke-dashoffset:0"
       id="path3084"
       sodipodi:cx="-2.1428571"
       sodipodi:cy="58.567387"
       sodipodi:rx="35.357143"
       sodipodi:ry="35.357143"
       d="m 33.214286,58.567387 c 0,19.527211 -15.829932,35.357143 -35.3571431,35.357143 C -21.670068,93.92453 -37.5,78.094598 -37.5,58.567387 c 0,-19.527211 15.829932,-35.357144 35.3571429,-35.357144 19.5272111,0 35.3571431,15.829933 35.3571431,35.357144 z"
       transform="matrix(1.0656566,0,0,1.0656566,2.7306753,908.66676)" />
    <path
       sodipodi:nodetypes="cc"
       inkscape:connector-curvature="0"
       id="path4678"
       d="m 27.964286,995.0383 19.125878,12.1429"
       style="fill:none;stroke:#ff0000;stroke-width:1.99999988;stroke-linecap:butt;stroke-linejoin:miter;stroke-miterlimit:4;stroke-opacity:1;stroke-dasharray:none" />
    <path
       style="fill:none;stroke:#ff0000;stroke-width:1.99999988;stroke-linecap:butt;stroke-linejoin:miter;stroke-miterlimit:4;stroke-opacity:1;stroke-dasharray:none"
       d="m 32.942255,960.75258 19.125878,-7.14281"
       id="path4680"
       inkscape:connector-curvature="0"
       sodipodi:nodetypes="cc" />
    <path
       sodipodi:nodetypes="cc"
       inkscape:connector-curvature="0"
       id="path4682"
       d="m 32.156259,985.39544 13.885912,4.6429"
       style="fill:none;stroke:#ff0000;stroke-width:1.99999988;stroke-linecap:butt;stroke-linejoin:miter;stroke-miterlimit:4;stroke-opacity:1;stroke-dasharray:none" />
  </g>
  <g
     style="display:inline"
     inkscape:label="doomed"
     id="layer2"
     inkscape:groupmode="layer"
     transform="translate(43.119889,-115.53908)">
    <path
       sodipodi:nodetypes="cc"
       inkscape:connector-curvature="0"
       id="path3006"
       d="M 62.286068,188.75 100.61642,157.5"
       style="fill:none;stroke:#909090;stroke-width:0.99999994px;stroke-linecap:butt;stroke-linejoin:miter;stroke-opacity:1" />
    <path
       inkscape:connector-curvature="0"
       id="path3778"
       d="M 103.55081,176.25 85.210923,170 l 18.339887,0"
       style="fill:none;stroke:#909090;stroke-width:0.99999994px;stroke-linecap:butt;stroke-linejoin:miter;stroke-opacity:1" />
    <path
       inkscape:connector-curvature="0"
       id="path3780"
       d="M 85.210923,188.75 94.380867,195"
       style="fill:none;stroke:#909090;stroke-width:0.99999994px;stroke-linecap:butt;stroke-linejoin:miter;stroke-opacity:1" />
    <path
       inkscape:connector-curvature="0"
       id="path3784"
       d="m 121.89068,207.5 -13.75491,-18.75 9.16995,6.25"
       style="fill:none;stroke:#909090;stroke-width:0.99999994px;stroke-linecap:butt;stroke-linejoin:miter;stroke-opacity:1" />
    <path
       sodipodi:nodetypes="cc"
       inkscape:connector-curvature="0"
       id="path3786"
       d="M 100.61642,157.5 121.89068,145"
       style="fill:none;stroke:#909090;stroke-width:0.99999994px;stroke-linecap:butt;stroke-linejoin:miter;stroke-opacity:1" />
    <path
       sodipodi:nodetypes="cc"
       inkscape:connector-curvature="0"
       id="path3788"
       d="m 111.25356,151.25 10.63712,6.25"
       style="fill:none;stroke:#909090;stroke-width:0.99999994px;stroke-linecap:butt;stroke-linejoin:miter;stroke-opacity:1" />
    <path
       sodipodi:nodetypes="cc"
       inkscape:connector-curvature="0"
       id="path3790"
       d="m 100.61642,157.5 21.27426,6.25"
       style="fill:none;stroke:#909090;stroke-width:0.99999994px;stroke-linecap:butt;stroke-linejoin:miter;stroke-opacity:1" />
    <path
       inkscape:connector-curvature="0"
       id="path3792"
       d="M 117.30572,188.75 131.06063,170"
       style="fill:none;stroke:#909090;stroke-width:0.99999994px;stroke-linecap:butt;stroke-linejoin:miter;stroke-opacity:1" />
    <path
       inkscape:connector-curvature="0"
       id="path3794"
       d="m 126.47566,176.25 9.16995,6.25"
       style="fill:none;stroke:#909090;stroke-width:0.99999994px;stroke-linecap:butt;stroke-linejoin:miter;stroke-opacity:1" />
    <path
       inkscape:connector-curvature="0"
       id="path3796"
       d="m 144.81555,176.25 -13.75492,-6.25 9.16994,-6.25 9.16995,6.25"
       style="fill:none;stroke:#909090;stroke-width:0.99999994px;stroke-linecap:butt;stroke-linejoin:miter;stroke-opacity:1" />
    <path
       inkscape:connector-curvature="0"
       id="path3798"
       d="m 149.40052,151.25 -9.16995,12.5 9.16995,0"
       style="fill:none;stroke:#909090;stroke-width:0.99999994px;stroke-linecap:butt;stroke-linejoin:miter;stroke-opacity:1" />
    <path
       inkscape:connector-curvature="0"
       id="path3800"
       d="m 135.64561,201.25 -13.75493,6.25 13.75493,6.25"
       style="fill:none;stroke:#909090;stroke-width:0.99999994px;stroke-linecap:butt;stroke-linejoin:miter;stroke-opacity:1" />
    <path
       inkscape:connector-curvature="0"
       id="path3802"
       d="m 149.40052,201.25 -4.58497,-12.5 9.16994,6.25 13.75491,12.5"
       style="fill:none;stroke:#909090;stroke-width:0.99999994px;stroke-linecap:butt;stroke-linejoin:miter;stroke-opacity:1" />
    <path
       inkscape:connector-curvature="0"
       id="path3804"
       d="m 153.98549,195 13.75491,6.25"
       style="fill:none;stroke:#909090;stroke-width:0.99999994px;stroke-linecap:butt;stroke-linejoin:miter;stroke-opacity:1" />
    <path
       inkscape:connector-curvature="0"
       id="path3808"
       d="m 39.361213,188.75 18.339884,12.5"
       style="fill:none;stroke:#909090;stroke-width:0.99999994px;stroke-linecap:butt;stroke-linejoin:miter;stroke-opacity:1" />
    <path
       inkscape:connector-curvature="0"
       id="path3810"
       d="m 57.701097,176.25 -9.169942,12.5 9.169942,-6.25"
       style="fill:none;stroke:#909090;stroke-width:0.99999994px;stroke-linecap:butt;stroke-linejoin:miter;stroke-opacity:1" />
    <path
       inkscape:connector-curvature="0"
       id="path3812"
       d="m 167.7404,188.75 18.33989,-25"
       style="fill:none;stroke:#909090;stroke-width:0.99999994px;stroke-linecap:butt;stroke-linejoin:miter;stroke-opacity:1;display:inline" />
    <path
       inkscape:connector-curvature="0"
       id="path3814"
       d="m 186.08029,176.25 -9.16995,0 9.16995,-6.25"
       style="fill:none;stroke:#909090;stroke-width:0.99999994px;stroke-linecap:butt;stroke-linejoin:miter;stroke-opacity:1;display:inline" />
    <path
       style="fill:none;stroke:#909090;stroke-width:0.99999994px;stroke-linecap:butt;stroke-linejoin:miter;stroke-opacity:1"
       d="m 43.422187,155.17857 0.602597,-19.82143"
       id="path4674"
       inkscape:connector-curvature="0"
       sodipodi:nodetypes="cc" />
    <path
       sodipodi:nodetypes="cc"
       inkscape:connector-curvature="0"
       id="path4676"
       d="m 51.282138,148.32143 28.636418,1.96428"
       style="fill:none;stroke:#909090;stroke-width:0.99999994px;stroke-linecap:butt;stroke-linejoin:miter;stroke-opacity:1" />
    <path
       style="fill:none;stroke:#909090;stroke-width:0.99999994px;stroke-linecap:butt;stroke-linejoin:miter;stroke-opacity:1"
       d="m 79.184961,144.82143 -18.339884,-6.25 18.339884,0"
       id="path4684"
       inkscape:connector-curvature="0" />
    <path
       inkscape:connector-curvature="0"
       id="path4686"
       d="m 51.413137,222.67857 -18.339884,-6.25 18.339884,0"
       style="fill:none;stroke:#909090;stroke-width:0.99999994px;stroke-linecap:butt;stroke-linejoin:miter;stroke-opacity:1" />
    <path
       style="fill:none;stroke:#909090;stroke-width:0.99999994px;stroke-linecap:butt;stroke-linejoin:miter;stroke-opacity:1"
       d="m 47.221164,163.39286 -9.169941,12.5 9.169941,-6.25"
       id="path4688"
       inkscape:connector-curvature="0" />
  </g>
  <g
     inkscape:groupmode="layer"
     id="layer3"
     inkscape:label="text"
     transform="translate(43.119889,-115.53908)"
     style="display:inline">
    <path
       sodipodi:type="arc"
       style="fill:none;stroke:#000000;stroke-width:1;stroke-miterlimit:4;stroke-opacity:0.54761903;stroke-dasharray:2, 1;stroke-dashoffset:0"
       id="path5141"
       sodipodi:cx="287.5"
       sodipodi:cy="170"
       sodipodi:rx="6.25"
       sodipodi:ry="12.5"
       d="m 293.75,170 c 0,6.90356 -2.79822,12.5 -6.25,12.5 -3.45178,0 -6.25,-5.59644 -6.25,-12.5 0,-6.90356 2.79822,-12.5 6.25,-12.5 3.45178,0 6.25,5.59644 6.25,12.5 z"
       transform="translate(-70,0)" />
    <path
       style="fill:none;stroke:#000000;stroke-width:0.5;stroke-linecap:butt;stroke-linejoin:miter;stroke-miterlimit:4;stroke-opacity:1;stroke-dasharray:none;marker-end:url(#Arrow1Lend)"
       d="m 186.59137,149.38724 26.44434,11.32705"
       id="path5143"
       inkscape:connector-curvature="0"
       sodipodi:nodetypes="cc" />
    <path
       d="m 299.10714,170 c 0,23.4721 -5.19669,42.5 -11.60714,42.5 -6.41045,0 -11.60714,-19.0279 -11.60714,-42.5 0,-23.4721 5.19669,-42.5 11.60714,-42.5 6.41045,0 11.60714,19.0279 11.60714,42.5 z"
       sodipodi:ry="42.5"
       sodipodi:rx="11.607142"
       sodipodi:cy="170"
       sodipodi:cx="287.5"
       id="path4694"
       style="fill:none;stroke:#000000;stroke-width:1;stroke-miterlimit:4;stroke-opacity:0.54761903;stroke-dasharray:2, 1;stroke-dashoffset:0"
       sodipodi:type="arc"
       transform="translate(-70.357143,18.214286)" />
    <path
       sodipodi:nodetypes="cc"
       inkscape:connector-curvature="0"
       id="path4696"
       d="m 191.07142,228.21428 18.39286,-6.78571"
       style="fill:none;stroke:#000000;stroke-width:0.5;stroke-linecap:butt;stroke-linejoin:miter;stroke-miterlimit:4;stroke-opacity:1;stroke-dasharray:none;marker-end:url(#Arrow1Lend)" />
    <g
       id="g4846"
       transform="matrix(2.204343,0,0,2.204343,51.4723,-290.86)">
      <g
         id="content"
         transform="matrix(0.15759029,0,0,-0.15759029,-27.5783,262.46344)"
         xml:space="preserve"
         stroke-miterlimit="10.433"
         font-style="normal"
         font-variant="normal"
         font-weight="normal"
         font-stretch="normal"
         font-size-adjust="none"
         letter-spacing="normal"
         word-spacing="normal"
         style="font-style:normal;font-variant:normal;font-weight:normal;font-stretch:normal;letter-spacing:normal;word-spacing:normal;text-anchor:start;fill:none;stroke:#000000;stroke-width:0.45364976;stroke-linecap:butt;stroke-linejoin:miter;stroke-miterlimit:10.43299961;stroke-opacity:1;stroke-dasharray:none;stroke-dashoffset:0"><path
           d="m 491.39,436.75 0.01,0.04 0.01,0.04 0.01,0.04 0.02,0.04 0.01,0.04 0.01,0.05 0.01,0.04 0.01,0.05 0.01,0.05 0.01,0.05 0.01,0.05 0.01,0.05 0.01,0.05 0,0.05 0,0.05 0,0.03 0.01,0.03 c 0,0.45 -0.25,0.45 -1.24,0.45 h -21.03 c -1.19,0 -1.25,-0.04 -1.55,-1 l -2.73,-8.97 c -0.11,-0.25 -0.16,-0.59 -0.16,-0.7 0,-0.05 0,-0.55 0.61,-0.55 0.44,0 0.55,0.36 0.64,0.5 1.89,5.89 4.49,9.18 12.25,9.18 h 8.13 l -27.85,-31.14 c 0,-0.05 -0.2,-0.75 -0.2,-0.89 0,-0.46 0.34,-0.46 1.25,-0.46 h 21.67 c 1.19,0 1.24,0.05 1.55,1 l 3.53,11 c 0.05,0.2 0.2,0.56 0.2,0.75 0,0.25 -0.2,0.55 -0.65,0.55 -0.44,0 -0.5,-0.19 -0.85,-1.24 -2.18,-6.78 -4.57,-10.37 -13.04,-10.37 h -8.53 z"
           id="path4849"
           inkscape:connector-curvature="0"
           style="fill:#000000;stroke-width:0" /><path
           d="m 505.45,455.98 -0.6,-0.45 -0.58,-0.46 -0.55,-0.47 -0.53,-0.49 -0.5,-0.5 -0.47,-0.51 -0.45,-0.53 -0.42,-0.53 -0.4,-0.54 -0.38,-0.55 -0.35,-0.56 -0.33,-0.56 -0.31,-0.57 -0.28,-0.57 -0.27,-0.58 -0.25,-0.58 -0.23,-0.58 -0.21,-0.58 -0.19,-0.59 -0.17,-0.58 -0.15,-0.58 -0.14,-0.58 -0.13,-0.57 -0.11,-0.57 -0.09,-0.57 -0.08,-0.56 -0.06,-0.55 -0.05,-0.54 -0.04,-0.54 -0.03,-0.53 -0.02,-0.51 0,-0.51 c 0,-4.92 1.47,-12.55 8.37,-17.42 0.28,0 0.69,0 0.69,0.4 0,0.22 -0.09,0.29 -0.34,0.54 -4.64,4.18 -6.35,10.1 -6.35,16.45 0,9.4 3.6,14 6.46,16.58 0.14,0.14 0.23,0.25 0.23,0.42 0,0.42 -0.41,0.42 -0.69,0.42 z"
           id="path4851"
           inkscape:connector-curvature="0"
           style="fill:#000000;stroke-width:0" /><path
           d="m 523.69,442.93 -0.08,-0.02 -0.08,-0.02 -0.08,-0.03 -0.08,-0.03 -0.08,-0.03 -0.07,-0.03 -0.07,-0.04 -0.07,-0.04 -0.07,-0.04 -0.06,-0.04 -0.06,-0.05 -0.06,-0.05 -0.06,-0.05 -0.05,-0.05 -0.05,-0.05 -0.05,-0.06 -0.05,-0.05 -0.04,-0.06 -0.04,-0.06 -0.04,-0.06 -0.04,-0.06 -0.03,-0.06 -0.03,-0.06 -0.03,-0.07 -0.02,-0.06 -0.02,-0.06 -0.02,-0.07 -0.01,-0.06 -0.01,-0.07 -0.01,-0.06 -0.01,-0.07 0,-0.06 c 0,-0.81 0.71,-1.13 1.16,-1.13 0.34,0 1.67,0.22 1.67,1.99 0,2.26 -2.5,3.03 -4.62,3.03 -5.44,0 -6.43,-4 -6.43,-5.08 0,-1.3 0.74,-2.12 1.22,-2.55 0.91,-0.7 1.53,-0.82 3.94,-1.25 0.74,-0.14 2.97,-0.56 2.97,-2.29 0,-0.6 -0.39,-1.92 -1.85,-2.8 -1.35,-0.77 -3.07,-0.77 -3.48,-0.77 -1.4,0 -3.39,0.32 -4.19,1.47 1.16,0.14 1.92,1 1.92,1.99 0,0.87 -0.62,1.28 -1.35,1.28 -1.02,0 -2.04,-0.8 -2.04,-2.33 0,-2.09 2.24,-3.37 5.61,-3.37 6.43,0 7.61,4.39 7.61,5.75 0,3.2 -3.53,3.82 -4.81,4.07 -0.31,0.07 -1.19,0.21 -1.39,0.27 -1.3,0.25 -1.92,0.98 -1.92,1.75 0,0.8 0.62,1.73 1.39,2.23 0.94,0.6 2.15,0.66 2.75,0.66 0.73,0 2.55,-0.11 3.31,-1.3 z"
           id="path4853"
           inkscape:connector-curvature="0"
           style="fill:#000000;stroke-width:0" /><path
           d="m 534.88,430.4 -0.01,-0.36 -0.02,-0.37 -0.02,-0.38 -0.05,-0.38 -0.03,-0.2 -0.03,-0.19 -0.04,-0.2 -0.04,-0.19 -0.05,-0.2 -0.06,-0.2 -0.06,-0.2 -0.07,-0.2 -0.08,-0.21 -0.08,-0.2 -0.09,-0.2 -0.1,-0.21 -0.1,-0.2 -0.12,-0.21 -0.12,-0.2 -0.13,-0.21 -0.15,-0.21 -0.15,-0.21 -0.16,-0.2 -0.17,-0.21 -0.18,-0.21 -0.19,-0.21 -0.21,-0.2 -0.21,-0.21 c -0.14,-0.14 -0.25,-0.25 -0.25,-0.42 0,-0.25 0.28,-0.49 0.48,-0.49 0.49,0 3.45,2.78 3.45,6.92 0,2.17 -0.84,3.8 -2.43,3.8 -1.16,0 -1.99,-0.91 -1.99,-1.98 0,-1.11 0.8,-2.02 2.02,-2.02 0.84,0 1.39,0.56 1.44,0.56 z"
           id="path4855"
           inkscape:connector-curvature="0"
           style="fill:#000000;stroke-width:0" /><path
           d="m 551.07,452 0,0.04 0,0.04 0,0.04 0,0.04 -0.01,0.04 0,0.04 0,0.04 0,0.03 0,0.04 0,0.03 0,0.03 -0.01,0.03 0,0.03 0,0.03 -0.01,0.03 0,0.02 0,0.03 -0.01,0.02 0,0.02 -0.01,0.03 -0.01,0.04 -0.02,0.04 -0.01,0.03 -0.02,0.03 -0.02,0.03 -0.03,0.03 -0.03,0.02 -0.03,0.02 -0.03,0.01 -0.04,0.02 -0.04,0.01 -0.04,0.01 -0.02,0.01 -0.03,0 -0.02,0.01 -0.03,0 -0.03,0 -0.03,0.01 -0.03,0 -0.03,0 -0.03,0 -0.03,0 -0.04,0.01 -0.03,0 -0.04,0 -0.04,0 -0.04,0 -0.04,0 -0.04,0 -0.04,0 -0.04,0 -0.05,0 c -2.24,-2.2 -5.39,-2.23 -6.83,-2.23 v -1.25 c 0.84,0 3.14,0 5.05,0.96 V 432.7 c 0,-1.16 0,-1.61 -3.49,-1.61 h -1.31 v -1.25 c 0.63,0.03 4.91,0.14 6.21,0.14 1.07,0 5.46,-0.11 6.23,-0.14 v 1.25 h -1.33 c -3.48,0 -3.48,0.45 -3.48,1.61 z"
           id="path4857"
           inkscape:connector-curvature="0"
           style="fill:#000000;stroke-width:0" /><path
           d="m 562.33,455.98 -0.02,0 -0.03,0 -0.02,0 -0.03,0 -0.03,0 -0.02,0 -0.03,0 -0.03,-0.01 -0.03,0 -0.02,0 -0.03,-0.01 -0.03,0 -0.03,-0.01 -0.03,-0.01 -0.02,0 -0.03,-0.01 -0.02,-0.01 -0.03,-0.01 -0.02,-0.02 -0.02,-0.01 -0.02,-0.02 -0.02,-0.02 -0.02,-0.02 -0.01,-0.01 -0.01,-0.01 -0.01,-0.01 -0.01,-0.01 0,-0.01 -0.01,-0.02 -0.01,-0.01 0,-0.01 -0.01,-0.02 0,-0.01 -0.01,-0.02 0,-0.01 0,-0.02 -0.01,-0.02 0,-0.01 0,-0.02 0,-0.02 0,-0.02 c 0,-0.17 0.11,-0.28 0.31,-0.53 3,-2.75 6.35,-7.46 6.35,-16.44 0,-7.28 -2.27,-12.8 -6.04,-16.2 -0.57,-0.6 -0.62,-0.63 -0.62,-0.82 0,-0.17 0.11,-0.4 0.45,-0.4 0.42,0 3.74,2.29 6.04,6.65 1.53,2.89 2.54,6.66 2.54,10.74 0,4.9 -1.47,12.53 -8.36,17.42 z"
           id="path4859"
           inkscape:connector-curvature="0"
           style="fill:#000000;stroke-width:0" /><path
           d="m 498.06,405.32 h 3.55 c 0.65,0 1.1,0 1.1,0.77 0,0.48 -0.45,0.48 -1.03,0.48 h -3.31 l 1.28,5.16 c 0.03,0.17 0.11,0.34 0.11,0.48 0,0.65 -0.48,1.13 -1.19,1.13 -0.87,0 -1.39,-0.59 -1.64,-1.5 -0.23,-0.88 0.22,0.8 -1.32,-5.27 h -3.55 c -0.66,0 -1.11,0 -1.11,-0.76 0,-0.49 0.41,-0.49 1.05,-0.49 h 3.29 l -2.04,-8.21 c -0.22,-0.88 -0.54,-2.13 -0.54,-2.58 0,-2.07 1.75,-3.32 3.74,-3.32 3.87,0 6.06,4.88 6.06,5.33 0,0.46 -0.45,0.46 -0.56,0.46 -0.41,0 -0.45,-0.08 -0.72,-0.66 -0.98,-2.2 -2.77,-4.16 -4.67,-4.16 -0.74,0 -1.22,0.46 -1.22,1.71 0,0.36 0.14,1.09 0.2,1.43 z"
           id="path4861"
           inkscape:connector-curvature="0"
           style="fill:#000000;stroke-width:0" /><path
           d="m 530.4,399.43 0.06,0 0.05,0 0.11,0.01 0.12,0 0.06,0 0.06,0.01 0.06,0 0.05,0.01 0.06,0.01 0.06,0.01 0.06,0.01 0.05,0.01 0.06,0.02 0.05,0.02 0.05,0.02 0.05,0.02 0.05,0.03 0.04,0.03 0.04,0.03 0.04,0.04 0.04,0.04 0.02,0.02 0.01,0.02 0.02,0.02 0.02,0.03 0.01,0.02 0.01,0.03 0.02,0.02 0.01,0.03 0.01,0.03 0.01,0.03 0,0.03 0.01,0.03 0.01,0.03 0,0.04 0.01,0.03 0,0.04 0,0.04 0,0.04 c 0,0.86 -0.79,0.86 -1.39,0.86 h -20.76 c -0.57,0 -1.39,0 -1.39,-0.83 0,-0.88 0.79,-0.88 1.39,-0.88 z"
           id="path4863"
           inkscape:connector-curvature="0"
           style="fill:#000000;stroke-width:0" /><path
           d="m 550.57,404.65 -0.08,-0.02 -0.08,-0.02 -0.08,-0.03 -0.08,-0.03 -0.07,-0.03 -0.08,-0.03 -0.07,-0.04 -0.07,-0.04 -0.06,-0.04 -0.07,-0.05 -0.06,-0.04 -0.06,-0.05 -0.06,-0.05 -0.05,-0.05 -0.05,-0.05 -0.05,-0.06 -0.05,-0.05 -0.04,-0.06 -0.04,-0.06 -0.04,-0.06 -0.03,-0.06 -0.04,-0.06 -0.03,-0.06 -0.02,-0.07 -0.03,-0.06 -0.02,-0.06 -0.01,-0.07 -0.02,-0.06 -0.01,-0.07 -0.01,-0.06 0,-0.07 -0.01,-0.06 c 0,-0.82 0.71,-1.13 1.16,-1.13 0.34,0 1.67,0.22 1.67,1.99 0,2.26 -2.5,3.03 -4.62,3.03 -5.44,0 -6.42,-4 -6.42,-5.08 0,-1.3 0.73,-2.13 1.21,-2.55 0.91,-0.7 1.54,-0.83 3.94,-1.25 0.74,-0.14 2.97,-0.56 2.97,-2.29 0,-0.6 -0.39,-1.93 -1.84,-2.8 -1.36,-0.77 -3.08,-0.77 -3.49,-0.77 -1.4,0 -3.39,0.32 -4.18,1.47 1.15,0.14 1.92,1 1.92,1.99 0,0.87 -0.63,1.28 -1.36,1.28 -1.02,0 -2.03,-0.8 -2.03,-2.33 0,-2.09 2.23,-3.38 5.61,-3.38 6.42,0 7.61,4.4 7.61,5.75 0,3.21 -3.53,3.83 -4.82,4.08 -0.31,0.07 -1.18,0.21 -1.39,0.27 -1.29,0.25 -1.92,0.98 -1.92,1.75 0,0.8 0.63,1.73 1.39,2.23 0.94,0.6 2.16,0.66 2.75,0.66 0.74,0 2.55,-0.11 3.31,-1.3 z"
           id="path4865"
           inkscape:connector-curvature="0"
           style="fill:#000000;stroke-width:0" /></g>    </g>
    <g
       id="g4993"
       transform="matrix(2.2765733,0,0,2.2765733,71.63371,-215.46489)">
      <g
         word-spacing="normal"
         letter-spacing="normal"
         font-size-adjust="none"
         font-stretch="normal"
         font-weight="normal"
         font-variant="normal"
         font-style="normal"
         stroke-miterlimit="10.433"
         xml:space="preserve"
         transform="matrix(0.15759029,0,0,-0.15759029,-27.5783,262.46344)"
         id="g4995"
         style="font-style:normal;font-variant:normal;font-weight:normal;font-stretch:normal;letter-spacing:normal;word-spacing:normal;text-anchor:start;fill:none;stroke:#000000;stroke-width:0.43925667;stroke-linecap:butt;stroke-linejoin:miter;stroke-miterlimit:10.43299961;stroke-opacity:1;stroke-dasharray:none;stroke-dashoffset:0"><path
           id="path4997"
           d="m 491.39,439.03 0.01,0.04 0.01,0.04 0.01,0.04 0.02,0.04 0.01,0.04 0.01,0.05 0.01,0.04 0.01,0.05 0.01,0.04 0.01,0.05 0.01,0.05 0.01,0.05 0.01,0.05 0,0.06 0,0.05 0,0.03 0.01,0.03 c 0,0.45 -0.25,0.45 -1.24,0.45 h -21.03 c -1.19,0 -1.25,-0.05 -1.55,-1 l -2.73,-8.97 c -0.11,-0.25 -0.16,-0.59 -0.16,-0.7 0,-0.05 0,-0.55 0.61,-0.55 0.44,0 0.55,0.36 0.64,0.5 1.89,5.89 4.49,9.17 12.25,9.17 h 8.13 l -27.85,-31.14 c 0,-0.04 -0.2,-0.75 -0.2,-0.89 0,-0.45 0.34,-0.45 1.25,-0.45 h 21.67 c 1.19,0 1.24,0.05 1.55,1 l 3.53,11 c 0.05,0.2 0.2,0.56 0.2,0.75 0,0.25 -0.2,0.55 -0.65,0.55 -0.44,0 -0.5,-0.19 -0.85,-1.24 -2.18,-6.78 -4.57,-10.37 -13.04,-10.37 h -8.53 z"
           inkscape:connector-curvature="0"
           style="fill:#000000;stroke-width:0" /><path
           id="path4999"
           d="m 498.06,412.53 h 3.55 c 0.65,0 1.1,0 1.1,0.76 0,0.49 -0.45,0.49 -1.03,0.49 h -3.31 l 1.28,5.15 c 0.03,0.18 0.11,0.35 0.11,0.49 0,0.64 -0.48,1.12 -1.19,1.12 -0.87,0 -1.39,-0.59 -1.64,-1.5 -0.23,-0.87 0.22,0.8 -1.32,-5.26 h -3.55 c -0.66,0 -1.11,0 -1.11,-0.77 0,-0.48 0.41,-0.48 1.05,-0.48 h 3.29 l -2.04,-8.22 c -0.22,-0.88 -0.54,-2.13 -0.54,-2.58 0,-2.06 1.75,-3.31 3.74,-3.31 3.87,0 6.06,4.87 6.06,5.33 0,0.45 -0.45,0.45 -0.56,0.45 -0.41,0 -0.45,-0.08 -0.72,-0.66 -0.98,-2.2 -2.77,-4.15 -4.67,-4.15 -0.74,0 -1.22,0.45 -1.22,1.7 0,0.36 0.14,1.09 0.2,1.44 z"
           inkscape:connector-curvature="0"
           style="fill:#000000;stroke-width:0" /></g>    </g>
    <text
       sodipodi:linespacing="125%"
       id="text3175"
       y="127.36308"
       x="-43.791889"
       style="font-size:16px;font-style:normal;font-variant:normal;font-stretch:normal;line-height:125%;letter-spacing:0px;word-spacing:0px;fill:#000000;fill-opacity:1;stroke:none;display:inline;font-family:URW Gothic L;-inkscape-font-specification:URW Gothic L Book"
       xml:space="preserve"><tspan
         y="127.36308"
         x="-43.791889"
         id="tspan3177"
         sodipodi:role="line">a)</tspan></text>
    <text
       xml:space="preserve"
       style="font-size:16px;font-style:normal;font-variant:normal;font-stretch:normal;line-height:125%;letter-spacing:0px;word-spacing:0px;fill:#000000;fill-opacity:1;stroke:none;display:inline;font-family:URW Gothic L;-inkscape-font-specification:URW Gothic L Book"
       x="256.2081"
       y="127.36309"
       id="text3179"
       sodipodi:linespacing="125%"><tspan
         sodipodi:role="line"
         id="tspan3181"
         x="256.2081"
         y="127.36309">b)</tspan></text>
  </g>
  <g
     inkscape:groupmode="layer"
     id="layer4"
     inkscape:label="nearest"
     transform="translate(5.3889152,13.047887)">
    <path
       style="fill:#a3a3a3;fill-opacity:1;stroke:#000000;stroke-width:1;stroke-miterlimit:4;stroke-opacity:1;stroke-dasharray:3.00000009, 1.00000004;stroke-dashoffset:0;display:inline"
       d="m 369.78125,15.53125 c -1.07242,4.718262 -3.18444,10.158058 -9.65625,13.875 -3.39349,1.94898 -6.69839,-10.97783 -16.96875,-3.15625 -13.79937,10.50918 -29.625,29.31069 -29.625,33.375 0,9.60047 -1.27408,18.22813 1.90625,31.8125 8.05157,34.3911 46.91637,1.30505 49.21875,4.46875 4.80988,-0.26635 5.77166,-1.249591 6.4375,-2.375 0.29454,-2.936146 0.62709,-5.871554 0.84375,-8.8125 0.3611,-4.901576 0.60515,-9.809569 0.75,-14.71875 0.14485,-4.909181 0.1963,-9.809127 0.125,-14.71875 -0.0713,-4.909623 -0.24391,-9.815846 -0.53125,-14.71875 -0.28734,-4.902904 -0.68422,-9.798476 -1.1875,-14.6875 -0.35524,-3.450928 -0.84971,-6.902781 -1.3125,-10.34375 z"
       id="path4709"
       inkscape:connector-curvature="0" />
    <path
       style="fill:#ebebeb;fill-opacity:1;stroke:#000000;stroke-width:1;stroke-miterlimit:4;stroke-opacity:1;stroke-dasharray:3.00000009, 1.00000004;stroke-dashoffset:0;display:inline"
       d="m 398.1875,22.46875 c -4.06475,0 -11.01977,-13.00343 -14.6875,-11.8125 -3.80083,1.23416 -7.96126,-6.39614 -11.125,-4.09375 -1.50806,1.0974707 -1.6356,4.753211 -2.59375,8.96875 0.46279,3.440969 0.95726,6.892822 1.3125,10.34375 0.50328,4.889024 0.90016,9.784596 1.1875,14.6875 0.28734,4.902904 0.45995,9.809127 0.53125,14.71875 0.0713,4.909623 0.0199,9.809569 -0.125,14.71875 -0.14485,4.909181 -0.3889,9.817174 -0.75,14.71875 -0.21666,2.940946 -0.54921,5.876354 -0.84375,8.8125 0.71909,-1.215407 1.08926,-2.57409 5.4375,-3.40625 3.16414,2.3027 5.19861,9.17205 9,10.40625 3.66738,1.1907 8.59193,7.28125 12.65625,7.28125"
       id="path3042"
       inkscape:connector-curvature="0"
       sodipodi:nodetypes="csscsssssccsc" />
    <path
       id="path3988"
       d="m 311.61164,7.3162721 55.15604,-10.6539541 0,0 c 7.47882,38.718232 8.05585,78.453554 1.70448,117.372622 l -56.84653,-9.27704"
       style="fill:none;stroke:#000000;stroke-width:1.875;stroke-miterlimit:4;stroke-opacity:1;stroke-dasharray:3.75, 3.75;stroke-dashoffset:0;display:inline"
       inkscape:connector-curvature="0" />
    <path
       sodipodi:nodetypes="cc"
       style="fill:none;stroke:#000000;stroke-width:1.875;stroke-linecap:butt;stroke-linejoin:miter;stroke-miterlimit:4;stroke-opacity:1;stroke-dasharray:3.75, 3.75;stroke-dashoffset:0;display:inline"
       d="m 312.50722,60.16303 59.39883,0"
       id="path3194"
       inkscape:connector-curvature="0" />
    <g
       transform="matrix(2.3691611,0,0,2.3691611,-81.38221,-476.66125)"
       id="g4222">
      <g
         style="font-style:normal;font-variant:normal;font-weight:normal;font-stretch:normal;letter-spacing:normal;word-spacing:normal;text-anchor:start;fill:none;stroke:#000000;stroke-width:0.42209032;stroke-linecap:butt;stroke-linejoin:miter;stroke-miterlimit:10.43299961;stroke-opacity:1;stroke-dasharray:none;stroke-dashoffset:0"
         id="g4224"
         transform="matrix(0.15814286,0,0,-0.15814286,-27.675,270)"
         xml:space="preserve"
         stroke-miterlimit="10.433"
         font-style="normal"
         font-variant="normal"
         font-weight="normal"
         font-stretch="normal"
         font-size-adjust="none"
         letter-spacing="normal"
         word-spacing="normal"><path
           style="fill:#000000;stroke-width:0"
           inkscape:connector-curvature="0"
           d="m 1223.3,352.18 -0.2,-0.31 -0.2,-0.29 -0.1,-0.28 -0.2,-0.26 -0.2,-0.25 -0.2,-0.23 -0.2,-0.22 -0.2,-0.21 -0.2,-0.2 -0.1,-0.18 -0.2,-0.17 -0.2,-0.16 -0.2,-0.15 -0.2,-0.14 -0.2,-0.13 -0.2,-0.12 -0.2,-0.11 -0.2,-0.1 -0.1,-0.09 -0.2,-0.09 -0.2,-0.07 -0.2,-0.07 -0.2,-0.06 -0.2,-0.06 -0.2,-0.05 -0.2,-0.04 -0.2,-0.04 -0.2,-0.03 -0.4,-0.05 -0.4,-0.03 c -0.6,-0.05 -1,-0.05 -1,-1 0,-0.3 0.2,-0.55 0.6,-0.55 1.3,0 2.9,0.16 4.3,0.16 1.6,0 3.4,-0.16 5,-0.16 0.2,0 0.9,0 0.9,0.95 0,0.55 -0.4,0.6 -0.8,0.6 -1.1,0.09 -2.3,0.5 -2.3,1.73 0,0.61 0.3,1.16 0.7,1.85 l 3.7,6.39 h 12.5 l -0.1,1.53 h -11.4 l 9.8,16.45 1.6,-16.45 0.1,-1.53 c 0.2,-1.05 0.9,-7.83 0.9,-8.33 0,-1.5 -2.6,-1.64 -3.6,-1.64 -0.7,0 -1.2,0 -1.2,-1 0,-0.55 0.6,-0.55 0.7,-0.55 2,0 4.2,0.16 6.2,0.16 1.2,0 4.4,-0.16 5.6,-0.16 0.3,0 0.9,0 0.9,1 0,0.55 -0.5,0.55 -1.1,0.55 -3.1,0 -3.1,0.34 -3.3,1.8 l -3,31.12 c -0.1,1 -0.1,1.2 -1,1.2 -0.7,0 -0.9,-0.34 -1.2,-0.84 z"
           id="path4226" /><path
           style="fill:#000000;stroke-width:0"
           inkscape:connector-curvature="0"
           d="m 1261.8,383.41 0.1,0.06 0,0.05 0,0.05 0,0.05 0,0.04 0.1,0.05 0,0.04 0,0.05 0,0.04 0,0.04 0,0.04 0.1,0.03 0,0.04 0,0.03 0,0.04 0,0.03 0,0.03 0,0.03 0,0.04 0,0.02 0,0.03 0,0.03 0,0.03 0,0.03 0,0.05 0,0.05 0,0.05 0,0.04 c 0,1.08 -0.9,1.93 -2,1.93 -1.3,0 -1.8,-1.1 -1.9,-1.65 l -4.6,-15.09 c -0.1,-0.06 -0.2,-0.51 -0.2,-0.56 0,-0.41 1.1,-0.77 1.4,-0.77 0.2,0 0.2,0.08 0.5,0.6 z"
           id="path4228" /></g>    </g>
    <g
       id="g4415"
       transform="matrix(1.8007467,0,0,1.8007467,37.159077,-311.05052)">
      <g
         word-spacing="normal"
         letter-spacing="normal"
         font-size-adjust="none"
         font-stretch="normal"
         font-weight="normal"
         font-variant="normal"
         font-style="normal"
         stroke-miterlimit="10.433"
         xml:space="preserve"
         transform="matrix(0.15814286,0,0,-0.15814286,-27.675,270)"
         id="g4417"
         style="font-style:normal;font-variant:normal;font-weight:normal;font-stretch:normal;letter-spacing:normal;word-spacing:normal;text-anchor:start;fill:none;stroke:#000000;stroke-width:0.55532521;stroke-linecap:butt;stroke-linejoin:miter;stroke-miterlimit:10.43299961;stroke-opacity:1;stroke-dasharray:none;stroke-dashoffset:0"><path
           id="path4419"
           d="m 1174.6,365.02 0,0 0.1,0 0.1,0 0.1,0 0,0.01 0.1,0 0.1,0.01 0.1,0.01 0.1,0.01 0.1,0.01 0.1,0.02 0.1,0.02 0.1,0.02 0.1,0.03 0.1,0.04 0.1,0.03 0.1,0.05 0.1,0.04 0.1,0.06 0.1,0.06 0.1,0.06 0.1,0.07 0,0.04 0,0.04 0.1,0.04 0,0.05 0.1,0.04 0,0.05 0,0.05 0,0.05 0.1,0.06 0,0.05 0,0.06 0,0.06 0,0.06 0.1,0.07 0,0.06 0,0.07 0,0.07 0,0.08 0,0.07 0,0.08 c 0,1.19 -1,1.19 -1.9,1.19 h -11.4 c -7.5,0 -13,-8.22 -13,-14.14 0,-4.39 2.9,-7.88 7.4,-7.88 l 0.1,1.1 c -2.5,0 -4.4,1.8 -4.4,5.37 0,1.5 0.5,5.6 2.3,8.53 2.1,3.44 5.1,4.13 6.8,4.13 4.1,0 4.5,-3.28 4.5,-4.83 0,-2.34 -1,-6.42 -2.6,-8.97 -2,-2.93 -4.7,-4.23 -6.6,-4.23 h 0 l -0.1,-1.1 c 5.9,0 12.5,6.04 12.5,13.71 0,0.84 0,3.23 -1.5,5.42 z"
           inkscape:connector-curvature="0"
           style="fill:#000000;stroke-width:0" /><path
           id="path4421"
           d="m 1200.9,381.91 0,0.03 0,0.03 0,0.03 0,0.03 0,0.03 0,0.02 0,0.03 0.1,0.02 0,0.05 0,0.05 0,0.05 0,0.04 0,0.04 0,0.04 0,0.03 0.1,0.04 0,0.03 0,0.03 0,0.03 0,0.03 0,0.02 0,0.02 0,0.03 0,0.02 0,0.01 0,0.02 0,0.02 0,0.01 0,0.01 0,0.02 0,0.01 0,0.01 0,0 0,0.01 0,0.01 0,0.01 c 0,0.54 -0.4,0.98 -1,0.98 -0.3,0 -0.7,-0.14 -0.8,-0.44 L 1182,335.88 c -0.3,-0.64 -0.3,-0.84 -0.3,-0.89 0,-0.55 0.5,-1 1,-1 0.7,0 0.8,0.34 1.1,1.19 z"
           inkscape:connector-curvature="0"
           style="fill:#000000;stroke-width:0" /><path
           id="path4423"
           d="m 1223.3,343.69 -8.7,19.37 c -0.4,0.8 -0.6,0.8 -0.8,0.8 0,0 -0.3,0 -0.8,-0.39 l -4.8,-3.59 c -0.6,-0.5 -0.6,-0.65 -0.6,-0.8 0,-0.25 0.1,-0.55 0.5,-0.55 0.3,0 1.1,0.7 1.7,1.09 0.3,0.26 1,0.8 1.6,1.21 l 9.8,-21.58 c 0.4,-0.8 0.6,-0.8 1,-0.8 0.8,0 1,0.3 1.3,1 l 22.6,46.83 c 0.4,0.7 0.4,0.89 0.4,1 0,0.5 -0.4,1 -1,1 -0.4,0 -0.8,-0.25 -1.2,-1.05 z"
           inkscape:connector-curvature="0"
           style="fill:#000000;stroke-width:0" /><polyline
           id="polyline4425"
           points="1245,386 1331.2,386 1331.2,388.04 1245,388.04 "
           style="fill:#000000;fill-rule:nonzero;stroke-width:0" /><path
           id="path4427"
           d="m 1251.7,350.29 5.3,5.12 c 7.7,6.88 10.7,9.56 10.7,14.55 0,5.68 -4.5,9.67 -10.5,9.67 -5.7,0 -9.4,-4.59 -9.4,-9.03 0,-2.78 2.5,-2.78 2.7,-2.78 0.8,0 2.6,0.59 2.6,2.64 0,1.29 -0.9,2.59 -2.7,2.59 -0.3,0 -0.5,0 -0.6,-0.05 1.1,3.24 3.8,5.08 6.7,5.08 4.6,0 6.7,-4.04 6.7,-8.12 0,-3.99 -2.5,-7.92 -5.2,-11.02 l -9.6,-10.65 c -0.6,-0.55 -0.6,-0.65 -0.6,-1.85 h 18.5 l 1.4,8.67 h -1.2 c -0.3,-1.5 -0.6,-3.68 -1.1,-4.43 -0.4,-0.39 -3.6,-0.39 -4.7,-0.39 z"
           inkscape:connector-curvature="0"
           style="fill:#000000;stroke-width:0" /><path
           id="path4429"
           d="m 1289.8,365.08 -0.1,-0.01 -0.2,-0.01 -0.1,-0.02 -0.1,-0.03 -0.1,-0.03 -0.1,-0.03 -0.2,-0.05 -0.1,-0.04 -0.1,-0.05 -0.1,-0.06 -0.1,-0.06 -0.1,-0.06 -0.1,-0.07 -0.1,-0.07 0,-0.07 -0.1,-0.08 -0.1,-0.08 -0.1,-0.08 0,-0.08 -0.1,-0.09 -0.1,-0.09 0,-0.09 -0.1,-0.1 0,-0.09 -0.1,-0.1 0,-0.1 0,-0.1 0,-0.1 -0.1,-0.1 0,-0.1 0,-0.11 0,-0.1 c 0,-0.7 0.4,-1.44 1.6,-1.44 1.1,0 2.2,0.85 2.2,2.79 0,2.25 -2.1,4.28 -5.9,4.28 -6.6,0 -8.4,-5.08 -8.4,-7.27 0,-3.89 3.7,-4.64 5.1,-4.94 2.6,-0.5 5.2,-1.04 5.2,-3.78 0,-1.29 -1.1,-5.48 -7.1,-5.48 -0.7,0 -4.5,0 -5.7,2.64 1.9,-0.25 3.1,1.25 3.1,2.64 0,1.14 -0.8,1.75 -1.8,1.75 -1.3,0 -2.8,-1.05 -2.8,-3.3 0,-2.84 2.9,-4.83 7.1,-4.83 8.1,0 10.1,6.04 10.1,8.27 0,1.8 -1,3.05 -1.6,3.64 -1.3,1.39 -2.8,1.64 -5,2.09 -1.8,0.4 -3.8,0.75 -3.8,2.99 0,1.45 1.2,4.48 5.6,4.48 1.3,0 3.8,-0.34 4.5,-2.28 z"
           inkscape:connector-curvature="0"
           style="fill:#000000;stroke-width:0" /><path
           id="path4431"
           d="m 1308.8,341.71 0,-0.07 0,-0.07 0,-0.07 0,-0.08 0,-0.07 -0.1,-0.08 0,-0.16 0,-0.16 -0.1,-0.16 0,-0.16 0,-0.08 -0.1,-0.07 0,-0.08 0,-0.07 0,-0.07 0,-0.07 0,-0.07 -0.1,-0.06 0,-0.06 0,-0.06 0,-0.05 0,-0.05 0,-0.05 0,-0.04 0,-0.03 0,-0.03 0,-0.03 0,-0.02 c 0,-0.76 0.6,-1.1 1.1,-1.1 0.7,0 1.2,0.45 1.4,0.76 0.2,0.31 0.4,1.42 0.6,2.16 0.2,0.65 0.6,2.26 0.8,3.14 0.2,0.76 0.4,1.53 0.6,2.33 0.4,1.5 0.4,1.56 1.1,2.65 1.1,1.71 2.8,3.69 5.5,3.69 2,0 2.1,-1.61 2.1,-2.44 0,-2.09 -1.5,-5.95 -2.1,-7.42 -0.3,-0.98 -0.5,-1.3 -0.5,-1.89 0,-1.84 1.6,-2.98 3.3,-2.98 3.5,0 5,4.79 5,5.32 0,0.46 -0.4,0.46 -0.5,0.46 -0.5,0 -0.5,-0.21 -0.7,-0.6 -0.8,-2.78 -2.3,-4.22 -3.7,-4.22 -0.7,0 -0.8,0.49 -0.8,1.22 0,0.8 0.1,1.25 0.8,2.83 0.4,1.08 1.8,4.77 1.8,6.72 0,0.56 0,2.03 -1.3,3.03 -0.6,0.45 -1.6,0.94 -3.2,0.94 -3.1,0 -5.1,-2.05 -6.2,-3.52 -0.3,2.97 -2.7,3.52 -4.5,3.52 -2.9,0 -4.9,-1.77 -5.9,-3.16 -0.3,2.39 -2.3,3.16 -3.7,3.16 -1.5,0 -2.3,-1.08 -2.8,-1.88 -0.8,-1.28 -1.2,-3.28 -1.2,-3.45 0,-0.45 0.4,-0.45 0.5,-0.45 0.5,0 0.6,0.11 0.8,1.04 0.5,2.07 1.2,3.77 2.6,3.77 0.9,0 1.1,-0.77 1.1,-1.7 0,-0.68 -0.3,-1.96 -0.6,-2.89 -0.2,-0.96 -0.5,-2.38 -0.7,-3.14 l -1.1,-4.47 c -0.2,-0.44 -0.4,-1.32 -0.4,-1.43 0,-0.76 0.6,-1.1 1.2,-1.1 0.6,0 1.2,0.45 1.4,0.76 0.1,0.31 0.4,1.42 0.6,2.16 0.2,0.65 0.5,2.26 0.8,3.14 0.2,0.76 0.4,1.53 0.6,2.33 0.3,1.43 0.4,1.7 1.4,3.14 1,1.39 2.6,3.2 5.2,3.2 2.1,0 2.1,-1.78 2.1,-2.44 0,-0.87 -0.1,-1.33 -0.6,-3.28 z"
           inkscape:connector-curvature="0"
           style="fill:#000000;stroke-width:0" /></g>    </g>
    <path
       style="fill:none;stroke:#000000;stroke-width:1px;stroke-linecap:butt;stroke-linejoin:miter;stroke-opacity:1;marker-end:url(#Arrow1Mend)"
       d="M 322.85714,32.128569 340.71428,43.55714"
       id="path4520"
       inkscape:connector-curvature="0" />
  </g>
  <g
     style="display:none"
     inkscape:label="unused"
     id="layer5"
     inkscape:groupmode="layer"
     transform="translate(5.3889152,13.047887)">
    <path
       inkscape:connector-curvature="0"
       id="path3979"
       d="M 311.62563,104.7579 38.178099,60.132763 311.61164,7.3162721"
       style="fill:none;stroke:#000000;stroke-width:1;stroke-miterlimit:4;stroke-opacity:1;stroke-dasharray:3.00000009, 1.00000004;stroke-dashoffset:0;display:inline" />
  </g>
</svg>
